<?xml version="1.0" encoding="UTF-8" standalone="no"?>
<svg
   xmlns:dc="http://purl.org/dc/elements/1.1/"
   xmlns:cc="http://creativecommons.org/ns#"
   xmlns:rdf="http://www.w3.org/1999/02/22-rdf-syntax-ns#"
   xmlns:svg="http://www.w3.org/2000/svg"
   xmlns="http://www.w3.org/2000/svg"
   viewBox="0 0 300 80.818546"
   height="80.81855"
   width="300"
   xml:space="preserve"
   version="1.1"
   id="svg2"><metadata
     id="metadata8"><rdf:RDF><cc:Work
         rdf:about=""><dc:format>image/svg+xml</dc:format><dc:type
           rdf:resource="http://purl.org/dc/dcmitype/StillImage" /><dc:title></dc:title></cc:Work></rdf:RDF></metadata><defs
     id="defs6"><clipPath
       id="clipPath20"
       clipPathUnits="userSpaceOnUse"><path
         id="path22"
         d="m 449.148,792.151 27.192,0 0.002,-27.211 -27.194,0.012 0,27.199" /></clipPath></defs><g
     transform="matrix(1.25,0,0,-1.25,-378.55492,925.03708)"
     id="g10"><g
       transform="matrix(2.2689886,0,0,2.2689886,302.84394,737.15485)"
       id="g12"><path
         id="path14"
         style="fill:#231f20;fill-opacity:1;fill-rule:nonzero;stroke:none"
         d="M 0,0 27.192,0 27.194,-27.211 0,-27.199 0,0" /></g><g
       transform="matrix(2.2689886,0,0,2.2689886,-716.26775,-1060.2267)"
       id="g16"><g
         clip-path="url(#clipPath20)"
         id="g18"><g
           transform="translate(449.876,765.701)"
           id="g24"><path
             id="path26"
             style="fill:#fff200;fill-opacity:1;fill-rule:nonzero;stroke:none"
             d="M 0,0 -0.003,25.686 25.7,25.682 25.678,-0.009 0,0" /></g></g></g><g
       transform="matrix(2.2689886,0,0,2.2689886,333.59781,698.85659)"
       id="g28"><path
         id="path30"
         style="fill:#231f20;fill-opacity:1;fill-rule:nonzero;stroke:none"
         d="m 0,0 8.188,-8.163 3.203,3.204 -8.195,8.188 1.599,1.581 0,3.182 1.136,1.143 0.005,-2.644 1.111,-1.095 3.998,4.001 1.077,-1.067 c 0,0.686 -0.2,3.056 -2.1,4.907 -2.132,2.076 -4.261,0.862 -4.998,0.129 L 1.166,9.503 2.128,8.546 0,6.428 l -2.124,2.118 0.959,0.957 -3.857,3.863 c -0.737,0.733 -2.868,1.947 -4.996,-0.129 -1.902,-1.851 -2.06,-4.221 -2.06,-4.907 l 1.037,1.067 3.995,-4.001 1.117,1.113 0.001,2.626 1.14,-1.143 -0.005,-3.176 1.599,-1.587 -8.11,-8.109 3.2,-3.194 L 0,0" /></g><g
       transform="matrix(2.2689886,0,0,2.2689886,388.00135,722.23852)"
       id="g32"><path
         id="path34"
         style="fill:#231f20;fill-opacity:1;fill-rule:nonzero;stroke:none"
         d="m 0,0 c 1.582,0.278 2.437,1.61 2.437,3.147 0,2.376 -1.667,3.421 -3.87,3.421 l -4.326,0 0,-11.131 2.895,0 0,4.28 0.028,0 2.734,-4.28 3.599,0 L 0,0 Z m -2.864,4.354 0.282,0 c 0.943,0 2.008,-0.175 2.008,-1.387 0,-1.211 -1.065,-1.39 -2.008,-1.39 l -0.282,0 0,2.777" /></g><g
       transform="matrix(2.2689886,0,0,2.2689886,416.37505,729.07271)"
       id="g36"><path
         id="path38"
         style="fill:#231f20;fill-opacity:1;fill-rule:nonzero;stroke:none"
         d="m 0,0 -2.685,0 0,-0.739 c -0.561,0.662 -1.479,0.992 -2.347,0.992 -2.247,0 -3.797,-1.861 -3.797,-4.033 0,-2.173 1.58,-4.048 3.824,-4.048 0.886,0 1.817,0.339 2.288,1.091 l 0.032,0 0,-0.838 2.685,0 L 0,0 Z m -4.327,-2.083 c 1.095,0 1.732,-0.784 1.732,-1.714 0,-0.959 -0.637,-1.698 -1.732,-1.698 -1.093,0 -1.726,0.739 -1.726,1.698 0,0.93 0.633,1.714 1.726,1.714" /></g><g
       transform="matrix(2.2689886,0,0,2.2689886,426.89862,735.67093)"
       id="g40"><path
         id="path42"
         style="fill:#231f20;fill-opacity:1;fill-rule:nonzero;stroke:none"
         d="m 0,0 c 0,-0.826 -0.681,-1.507 -1.507,-1.507 -0.826,0 -1.509,0.681 -1.509,1.507 0,0.828 0.683,1.505 1.509,1.505 C -0.681,1.505 0,0.828 0,0 Z m -0.161,-10.483 -2.689,0 0,7.5753 2.689,0 0,-7.5753 z" /></g><g
       transform="matrix(2.2689886,0,0,2.2689886,437.24975,711.88513)"
       id="g44"><path
         id="path46"
         style="fill:#231f20;fill-opacity:1;fill-rule:nonzero;stroke:none"
         d="m 0,0 -2.689,0 0,5.36 -0.944,0 0,2.215 0.944,0 0,0.956 c 0,1.049 0.029,1.818 0.77,2.659 0.662,0.784 1.623,1.214 2.641,1.214 0.415,0 0.784,-0.073 1.151,-0.265 l 0,-2.318 C 1.565,9.949 1.283,10.07 0.931,10.07 0.236,10.07 0,9.657 0,8.799 l 0,-1.224 1.873,0 0,-2.215 L 0,5.36 0,0" /></g><g
       transform="matrix(2.2689886,0,0,2.2689886,450.24652,711.88513)"
       id="g48"><path
         id="path50"
         style="fill:#231f20;fill-opacity:1;fill-rule:nonzero;stroke:none"
         d="m 0,0 -2.687,0 0,5.36 -0.946,0 0,2.215 0.946,0 0,0.956 c 0,1.049 0.031,1.818 0.769,2.659 0.664,0.784 1.622,1.214 2.641,1.214 0.415,0 0.782,-0.073 1.151,-0.265 l 0,-2.318 C 1.565,9.949 1.285,10.07 0.932,10.07 0.238,10.07 0,9.657 0,8.799 l 0,-1.224 1.874,0 0,-2.215 L 0,5.36 0,0" /></g><g
       transform="matrix(2.2689886,0,0,2.2689886,474.19569,720.08752)"
       id="g52"><path
         id="path54"
         style="fill:#231f20;fill-opacity:1;fill-rule:nonzero;stroke:none"
         d="m 0,0 c 0,2.585 -1.519,4.213 -4.147,4.213 -2.466,0 -4.194,-1.525 -4.194,-4.05 0,-2.612 1.874,-4.031 4.385,-4.031 1.727,0 3.427,0.812 3.855,2.601 l -2.586,0 c -0.295,-0.505 -0.71,-0.693 -1.283,-0.693 -1.107,0 -1.684,0.59 -1.684,1.681 L 0,-0.279 0,0 Z m -5.611,1.269 c 0.163,0.782 0.814,1.197 1.596,1.197 0.726,0 1.387,-0.471 1.521,-1.197 l -3.117,0" /></g><g
       transform="matrix(2.2689886,0,0,2.2689886,483.44409,735.67093)"
       id="g56"><path
         id="path58"
         style="fill:#231f20;fill-opacity:1;fill-rule:nonzero;stroke:none"
         d="m 0,0 c 0,-0.826 -0.68,-1.507 -1.507,-1.507 -0.826,0 -1.506,0.681 -1.506,1.507 0,0.828 0.68,1.505 1.506,1.505 C -0.68,1.505 0,0.828 0,0 Z m -0.162,-10.483 -2.687,0 0,7.5753 2.687,0 0,-7.5753 z" /></g><g
       transform="matrix(2.2689886,0,0,2.2689886,498.44891,724.65272)"
       id="g60"><path
         id="path62"
         style="fill:#231f20;fill-opacity:1;fill-rule:nonzero;stroke:none"
         d="m 0,0 c -0.413,0.219 -0.985,0.371 -1.445,0.371 -0.308,0 -0.841,-0.138 -0.841,-0.522 0,-0.516 0.841,-0.592 1.209,-0.665 1.257,-0.248 2.202,-0.839 2.202,-2.245 0,-1.99 -1.817,-2.818 -3.578,-2.818 -1.074,0 -2.138,0.312 -3.054,0.872 l 0.976,1.877 c 0.547,-0.386 1.461,-0.77 2.127,-0.77 0.338,0 0.84,0.164 0.84,0.579 0,0.587 -0.84,0.616 -1.681,0.841 -0.844,0.218 -1.687,0.631 -1.687,1.99 0,1.862 1.687,2.691 3.343,2.691 0.855,0 1.71,-0.137 2.493,-0.49 L 0,0" /></g><g
       transform="matrix(2.2689886,0,0,2.2689886,521.93294,720.08752)"
       id="g64"><path
         id="path66"
         style="fill:#231f20;fill-opacity:1;fill-rule:nonzero;stroke:none"
         d="m 0,0 c 0,2.585 -1.519,4.213 -4.145,4.213 -2.471,0 -4.196,-1.525 -4.196,-4.05 0,-2.612 1.877,-4.031 4.384,-4.031 1.729,0 3.426,0.812 3.855,2.601 l -2.584,0 C -2.98,-1.772 -3.392,-1.96 -3.97,-1.96 c -1.108,0 -1.68,0.59 -1.68,1.681 L 0,-0.279 0,0 Z m -5.606,1.269 c 0.161,0.782 0.81,1.197 1.594,1.197 0.723,0 1.382,-0.471 1.52,-1.197 l -3.114,0" /></g><g
       transform="matrix(2.2689886,0,0,2.2689886,530.80922,726.86045)"
       id="g68"><path
         id="path70"
         style="fill:#231f20;fill-opacity:1;fill-rule:nonzero;stroke:none"
         d="m 0,0 0.034,0 c 0.619,0.917 1.369,1.228 2.42,1.228 2.036,0 2.85,-1.287 2.85,-3.15 l 0,-4.678 -2.691,0 0,3.691 c 0,0.725 0.12,1.992 -1.21,1.992 C 0.313,-0.917 0,-1.728 0,-2.669 l 0,-3.931 -2.685,0 0,7.576 L 0,0.976 0,0" /></g><g
       transform="matrix(2.2689886,0,0,2.2689886,384.91553,695.64824)"
       id="g72"><path
         id="path74"
         style="fill:#231f20;fill-opacity:1;fill-rule:nonzero;stroke:none"
         d="M 0,0 0.207,0 C 0.991,0 1.881,-0.061 1.722,-1.082 1.571,-2.028 0.751,-2.161 -0.018,-2.161 l -0.325,0 L 0,0 Z m 0.149,-8.935 c 2.042,0 4.159,0.77 4.534,3.107 0.244,1.552 -0.268,2.634 -1.83,2.842 l 0.004,0.03 c 0.976,0.456 1.431,1.27 1.586,2.273 0.339,2.131 -0.867,2.901 -2.854,2.901 l -4.138,0 -1.764,-11.153 4.462,0 z m -0.834,4.617 0.296,0 c 0.946,0 2.4,0.133 2.187,-1.213 -0.194,-1.228 -1.636,-1.182 -2.491,-1.182 l -0.371,0 0.379,2.395" /></g><g
       transform="matrix(2.2689886,0,0,2.2689886,414.03119,679.78574)"
       id="g76"><path
         id="path78"
         style="fill:#231f20;fill-opacity:1;fill-rule:nonzero;stroke:none"
         d="m 0,0 0.42,-1.944 3.091,0 -2.434,11.154 -3.165,0 -6.054,-11.154 3.077,0 L -3.991,0 0,0 Z m -0.43,2.215 -2.412,0 1.76,3.547 0.031,0 0.621,-3.547" /></g><g
       transform="matrix(2.2689886,0,0,2.2689886,428.04673,700.68313)"
       id="g80"><path
         id="path82"
         style="fill:#231f20;fill-opacity:1;fill-rule:nonzero;stroke:none"
         d="m 0,0 2.897,0 4.231,-6.821 0.029,0 1.079,6.821 2.896,0 -1.765,-11.153 -2.898,0 -4.225,6.836 -0.031,0 -1.08,-6.836 -2.899,0 L 0,0" /></g><g
       transform="matrix(2.2689886,0,0,2.2689886,472.19217,700.68313)"
       id="g84"><path
         id="path86"
         style="fill:#231f20;fill-opacity:1;fill-rule:nonzero;stroke:none"
         d="m 0,0 3.594,0 -5.271,-5.28 3.904,-5.873 -3.755,0 -2.975,4.835 -0.031,0 -0.765,-4.835 -2.899,0 L -6.431,0 -3.532,0 -4.26,-4.6 -4.231,-4.6 0,0" /></g></g></svg>